<svg width="379" height="180" viewBox="0 0 379 180" fill="none" xmlns="http://www.w3.org/2000/svg">
<path d="M144.841 170.625C144.841 143.515 113.486 127.649 113.486 127.649H75.859H70.0488H32.4101C32.4101 127.649 1.05469 143.515 1.05469 170.625" fill="#EDEDED"/>
<path d="M144.841 170.625C144.841 143.515 113.486 127.649 113.486 127.649H75.859H70.0488H32.4101C32.4101 127.649 1.05469 143.515 1.05469 170.625" stroke="white" stroke-width="0.887628" stroke-miterlimit="10" stroke-linecap="round" stroke-linejoin="round"/>
<path d="M134.785 144.946H11.1104L17.8909 137.911H128.005L134.785 144.946Z" fill="white"/>
<path d="M143.616 161.467H2.02539L5.30043 154.432H140.293L143.616 161.467Z" fill="white"/>
<path d="M52.7518 94.9111V116.684C52.7518 116.684 48.0697 124.932 32.4102 127.649H112.406C112.406 127.649 92.3433 123.477 90.8878 116.684V94.9111" fill="#EDEDED"/>
<path d="M52.7518 94.9111V116.684C52.7518 116.684 48.0697 124.932 32.4102 127.649H112.406C112.406 127.649 92.3433 123.477 90.8878 116.684V94.9111" stroke="white" stroke-width="0.887628" stroke-miterlimit="10" stroke-linecap="round" stroke-linejoin="round"/>
<path d="M53.6377 94.9009C53.6377 94.9009 59.1338 106.645 68.0295 112.103C74.485 116.068 82.8358 114.525 87.2185 108.06C89.4098 104.834 91.0681 100.091 91.0681 93.1157C91.0681 93.1157 83.9492 103.215 73.3361 103.687C62.711 104.159 53.6377 94.9009 53.6377 94.9009Z" fill="#DEDEDE"/>
<path d="M99.7176 52.0689C99.7176 52.0689 103.199 103.863 71.8798 103.863C40.5607 103.863 43.0837 52.0689 43.0837 52.0689C43.0837 52.0689 41.5675 21.2593 72.9472 21.2593C102.156 21.2593 99.7176 52.0689 99.7176 52.0689Z" fill="#EDEDED" stroke="white" stroke-width="0.887628" stroke-miterlimit="10"/>
<path d="M99.7183 62.2814C99.7183 62.2814 102.654 58.0481 106.123 60.098C109.604 62.148 108.5 69.7412 106.123 73.5378C103.745 77.3344 99.9245 79.2024 97.8018 76.2913" fill="#EDEDED"/>
<path d="M99.7183 62.2814C99.7183 62.2814 102.654 58.0481 106.123 60.098C109.604 62.148 108.5 69.7412 106.123 73.5378C103.745 77.3344 99.9245 79.2024 97.8018 76.2913" stroke="white" stroke-width="0.887628" stroke-miterlimit="10"/>
<path d="M105.746 64.8532C105.746 64.8532 101.828 63.5432 99.0508 69.317" stroke="white" stroke-width="0.443814" stroke-miterlimit="10" stroke-linecap="round" stroke-linejoin="round"/>
<path d="M100.943 66.4907C100.943 66.4907 105.213 68.7711 102.387 72.2038" stroke="white" stroke-width="0.443814" stroke-miterlimit="10" stroke-linecap="round" stroke-linejoin="round"/>
<path d="M43.3023 62.2814C43.3023 62.2814 40.3669 58.0481 36.8978 60.098C33.4166 62.148 34.5204 69.7412 36.8978 73.5378C39.2752 77.3344 43.0961 79.2024 45.2188 76.2913" fill="#EDEDED"/>
<path d="M43.3023 62.2814C43.3023 62.2814 40.3669 58.0481 36.8978 60.098C33.4166 62.148 34.5204 69.7412 36.8978 73.5378C39.2752 77.3344 43.0961 79.2024 45.2188 76.2913" stroke="white" stroke-width="0.887628" stroke-miterlimit="10"/>
<path d="M37.2734 64.8532C37.2734 64.8532 41.1914 63.5432 43.9691 69.317" stroke="white" stroke-width="0.443814" stroke-miterlimit="10" stroke-linecap="round" stroke-linejoin="round"/>
<path d="M42.0645 66.4907C42.0645 66.4907 37.7949 68.7711 40.6211 72.2038" stroke="white" stroke-width="0.443814" stroke-miterlimit="10" stroke-linecap="round" stroke-linejoin="round"/>
<path d="M71.3946 15C33.2464 15 37.1037 40.9577 42.9017 61.5419C42.9017 61.5419 48.069 51.9473 47.038 45.1667C68.7018 42.7165 88.1336 30.7687 88.2307 30.708C89.7226 42.5467 99.9723 60.1106 99.9723 60.1106C105.746 40.9577 111.738 15 71.3946 15Z" fill="#EDEDED" stroke="white" stroke-width="1.04154"/>
<path d="M300.817 101.127V118.632C300.817 118.632 295.152 126.588 280.055 129.194H346.668C346.668 129.194 327.337 125.169 325.929 118.632V101.173" fill="#EDEDED"/>
<path d="M300.817 101.127V118.632C300.817 118.632 295.152 126.588 280.055 129.194H346.668C346.668 129.194 327.337 125.169 325.929 118.632V101.173" stroke="white" stroke-width="0.855409" stroke-miterlimit="10" stroke-linecap="round" stroke-linejoin="round"/>
<path d="M347.727 129.205H317.275H311.669H280.055C280.055 129.205 249.836 144.489 249.836 170.625H311.669H317.275H377.945C377.934 144.489 347.727 129.205 347.727 129.205Z" fill="#EDEDED" stroke="white" stroke-width="0.855409" stroke-miterlimit="10" stroke-linecap="round" stroke-linejoin="round"/>
<path d="M339.585 30.5119C339.585 30.5119 340.237 49.1572 349.635 58.8579C361.813 71.4316 363.756 104.988 322.836 102.302L328.873 24.2891L339.585 30.5119Z" fill="#EDEDED"/>
<path d="M320.172 37.9094C325.255 39.7123 329.593 42.9342 332.478 47.5403C332.687 47.8776 332.897 48.2266 333.094 48.5871C337.107 44.6324 339.596 39.1307 339.596 33.0591C339.585 21.0205 329.826 11.25 317.776 11.25C305.726 11.25 295.955 21.0205 295.955 33.0591C295.955 34.3502 296.071 35.618 296.292 36.8509C304.306 35.6645 312.588 35.2342 320.172 37.9094Z" fill="#EDEDED"/>
<path d="M285.429 65.9529C285.429 65.9529 277.136 37.037 299.096 26.0568C321.056 15.0767 338.469 34.2105 339.585 41.9688L308.529 33.7918L295.537 40.6311C295.537 40.6311 292.571 48.494 287.639 50.6575L285.429 65.9529Z" fill="#EDEDED"/>
<path d="M340.272 56.5079C340.272 56.5079 343.622 104.767 313.449 104.767C283.277 104.767 285.697 56.5079 285.697 56.5079C285.697 56.5079 284.243 27.813 314.473 27.813C342.61 27.813 340.272 56.5079 340.272 56.5079Z" fill="#EDEDED" stroke="white" stroke-width="0.841042" stroke-miterlimit="10"/>
<path d="M302.027 67.814C303.408 67.814 304.528 66.6944 304.528 65.3133C304.528 63.9321 303.408 62.8125 302.027 62.8125C300.646 62.8125 299.526 63.9321 299.526 65.3133C299.526 66.6944 300.646 67.814 302.027 67.814Z" fill="#EDEDED"/>
<path d="M325.337 67.814C326.718 67.814 327.837 66.6944 327.837 65.3133C327.837 63.9321 326.718 62.8125 325.337 62.8125C323.956 62.8125 322.836 63.9321 322.836 65.3133C322.836 66.6944 323.956 67.814 325.337 67.814Z" fill="#EDEDED"/>
<path d="M308.041 54.3911C307.913 54.647 307.296 57.7061 307.296 57.7061L293.536 59.1833L296.816 56.8221C297.654 56.287 298.584 55.9148 299.561 55.7171L308.041 54.3911Z" fill="#EDEDED"/>
<path d="M317.8 54.3911C317.928 54.647 318.544 57.7061 318.544 57.7061L332.304 59.1833L329.024 56.8221C328.187 56.287 327.256 55.9148 326.279 55.7171L317.8 54.3911Z" fill="#EDEDED"/>
<path d="M338.178 80.8995C340.213 83.7027 344.156 81.8649 346.448 78.2126C348.728 74.5603 349.798 67.2441 346.448 65.2667C343.098 63.2894 340.271 67.372 340.271 67.372C340.271 67.372 339.457 74.758 338.864 77.5263L338.178 80.8995Z" fill="#EDEDED" stroke="white" stroke-width="0.855409" stroke-miterlimit="10"/>
<path d="M339.364 74.164C342.04 68.6042 346.076 69.8371 346.076 69.8371L339.364 74.164Z" fill="#EDEDED"/>
<path d="M339.364 74.164C342.04 68.6042 346.076 69.8371 346.076 69.8371" stroke="white" stroke-width="0.427668" stroke-miterlimit="10" stroke-linecap="round" stroke-linejoin="round"/>
<path d="M341.446 71.4189C341.446 71.4189 345.552 73.6173 342.842 76.9206L341.446 71.4189Z" fill="#EDEDED"/>
<path d="M341.446 71.4189C341.446 71.4189 345.552 73.6173 342.842 76.9206" stroke="white" stroke-width="0.427668" stroke-miterlimit="10" stroke-linecap="round" stroke-linejoin="round"/>
<path d="M287.732 80.8758C285.696 83.679 281.998 81.8761 279.718 78.2238C277.438 74.5715 276.368 67.2553 279.718 65.278C283.068 63.3006 285.894 67.3833 285.894 67.3833" fill="#EDEDED"/>
<path d="M287.732 80.8758C285.696 83.679 281.998 81.8761 279.718 78.2238C277.438 74.5715 276.368 67.2553 279.718 65.278C283.068 63.3006 285.894 67.3833 285.894 67.3833" stroke="white" stroke-width="0.855409" stroke-miterlimit="10" stroke-linecap="round" stroke-linejoin="round"/>
<path d="M280.09 69.8365C280.09 69.8365 283.87 68.5803 286.545 74.1402L280.09 69.8365Z" fill="#EDEDED"/>
<path d="M280.09 69.8365C280.09 69.8365 283.87 68.5803 286.545 74.1402" stroke="white" stroke-width="0.427668" stroke-miterlimit="10" stroke-linecap="round" stroke-linejoin="round"/>
<path d="M284.708 71.4189C284.708 71.4189 280.602 73.6173 283.312 76.9206L284.708 71.4189Z" fill="#EDEDED"/>
<path d="M284.708 71.4189C284.708 71.4189 280.602 73.6173 283.312 76.9206" stroke="white" stroke-width="0.427668" stroke-miterlimit="10" stroke-linecap="round" stroke-linejoin="round"/>
<path d="M285.429 65.9524C285.429 65.9524 277.136 37.0365 299.096 26.0564C321.056 15.0762 338.469 34.21 339.585 41.9683L308.529 33.7913L295.537 40.6306C295.537 40.6306 292.571 48.4935 287.639 50.657L285.429 65.9524Z" fill="#EDEDED"/>
<path d="M285.429 65.9524C285.429 65.9524 296.98 51.413 289.687 36.8853C289.675 36.8853 284.359 54.6698 285.429 65.9524Z" fill="#EDEDED"/>
<path d="M340.202 66.6619C340.202 66.6619 330.245 55.3794 335.188 36.8853C335.188 36.8853 341.26 55.3794 340.202 66.6619Z" fill="#EDEDED"/>
<path d="M292.943 34.5588C292.943 34.5588 315.857 69.7208 343.773 59.1943C343.773 59.1943 320.847 22.7411 292.943 34.5588Z" fill="#EDEDED"/>
<path d="M300.492 38.8745C300.445 39.2118 302.609 53.4023 316.113 58.7877C316.113 58.7877 296.7 57.8339 291.198 40.3285L300.492 38.8745Z" fill="#EDEDED"/>
<path d="M343.179 46.3186V56.2868C343.179 56.6939 342.656 56.8684 342.4 56.5427C339.632 52.9369 329.466 41.4915 312.461 42.108C295.56 42.7244 286.941 53.6348 284.58 57.1708C284.382 57.4732 283.905 57.3336 283.905 56.973V47.3771C283.905 46.3418 284.173 45.3183 284.708 44.411C287.337 39.9561 296.456 29.1621 312.461 29.1621C332.223 29.1621 341.377 40.9914 342.935 44.1202C343.098 44.4459 343.179 45.958 343.179 46.3186Z" fill="#EDEDED" stroke="white" stroke-width="0.753796" stroke-miterlimit="10"/>
<path d="M248.95 49.3167C242.425 41.6488 237.208 32.7008 232.775 20.1321C228.012 6.65496 212.415 12.1339 212.415 12.1339C212.415 12.1339 199.406 -4.59209 179.844 1.23105C160.296 7.05418 153.495 20.9857 153.096 37.5327C152.697 54.0798 139.687 56.6679 129.666 75.8167C111.976 109.613 141.766 138.082 195.992 130.18L196.06 129.657C201.402 131.281 207.941 131.983 215.939 131.515C281.067 127.633 274.79 79.7126 248.95 49.3167Z" fill="#1A1A1A"/>
<path d="M275.382 180C277.433 154.67 251.209 142.239 251.209 142.239L211.865 120.778H177.876L138.518 142.239C138.518 142.239 112.197 153.844 114.344 180" fill="#01A899"/>
<path d="M177.032 180V127.5C193.532 137.25 207.657 130.312 212.657 125.625L213.595 180H177.032Z" fill="white"/>
<path d="M177.876 126.023C177.876 126.023 191.477 138.784 211.865 126.023H177.876Z" fill="#F4F4F2"/>
<path d="M177.876 126.023C177.876 126.023 191.477 138.784 211.865 126.023" stroke="#1A1A1A" stroke-width="1.04403" stroke-miterlimit="10" stroke-linejoin="round"/>
<path d="M177.875 180V120.778L159.359 143.795L166.022 180" fill="#C1780F"/>
<path d="M211.864 180V120.778L230.38 143.795L223.703 180" fill="#6AE8DD"/>
<path d="M177.97 127.5V95.625H212.657L211.72 126.562C197.657 136.875 183.282 130.937 177.97 127.5Z" fill="#FFDEB6"/>
<path d="M177.97 95.6255C177.97 95.6255 180.803 108.501 194.303 108.745C212.011 109.047 211.719 96.2065 211.719 96.2065C211.719 96.2065 209.303 99.9832 195.608 99.9949C180.331 100.006 177.97 95.6255 177.97 95.6255Z" fill="#1A1A1A"/>
<path d="M227.117 45.6138C227.117 45.6138 231.081 102.73 195.372 102.73C159.662 102.73 162.525 45.6138 162.525 45.6138C162.525 45.6138 160.791 11.6387 196.583 11.6387C229.884 11.6387 227.117 45.6138 227.117 45.6138Z" fill="#FFDEB6"/>
<path d="M181.854 58.9947C183.489 58.9947 184.814 57.6696 184.814 56.0349C184.814 54.4003 183.489 53.0752 181.854 53.0752C180.22 53.0752 178.895 54.4003 178.895 56.0349C178.895 57.6696 180.22 58.9947 181.854 58.9947Z" fill="#1A1A1A"/>
<path d="M209.442 58.9947C211.077 58.9947 212.402 57.6696 212.402 56.0349C212.402 54.4003 211.077 53.0752 209.442 53.0752C207.808 53.0752 206.482 54.4003 206.482 56.0349C206.482 57.6696 207.808 58.9947 209.442 58.9947Z" fill="#1A1A1A"/>
<path d="M185.612 77.1382C185.612 77.1382 190.086 79.9327 195.978 79.9327C201.87 79.9327 206.344 77.1382 206.344 77.1382" stroke="#1A1A1A" stroke-width="0.958398" stroke-miterlimit="10" stroke-linecap="round" stroke-linejoin="round"/>
<path d="M188.971 43.1084C188.82 43.4113 188.09 47.0318 188.09 47.0318L171.805 48.7801L175.687 45.9856C176.678 45.3523 177.779 44.9118 178.936 44.6778L188.971 43.1084Z" fill="#1A1A1A"/>
<path d="M200.508 43.1084C200.659 43.4113 201.389 47.0318 201.389 47.0318L217.674 48.7801L213.792 45.9856C212.801 45.3523 211.7 44.9118 210.543 44.6778L200.508 43.1084Z" fill="#1A1A1A"/>
<path d="M224.64 74.4816C227.049 77.7993 231.716 75.6242 234.427 71.3016C237.126 66.979 238.392 58.32 234.427 55.9797C230.463 53.6395 227.118 58.4714 227.118 58.4714C227.118 58.4714 226.154 67.213 225.452 70.4894L224.64 74.4816Z" fill="#FFDEB6"/>
<path d="M226.044 66.5103C229.21 59.93 233.987 61.3892 233.987 61.3892" stroke="#1A1A1A" stroke-width="0.506159" stroke-miterlimit="10" stroke-linecap="round" stroke-linejoin="round"/>
<path d="M228.508 63.248C228.508 63.248 233.367 65.8499 230.16 69.7595" stroke="#1A1A1A" stroke-width="0.506159" stroke-miterlimit="10" stroke-linecap="round" stroke-linejoin="round"/>
<path d="M165.307 74.4816C162.898 77.7993 158.231 75.6242 155.519 71.3016C152.821 66.979 151.554 58.32 155.519 55.9797C159.483 53.6395 162.829 58.4714 162.829 58.4714C162.829 58.4714 163.792 67.213 164.494 70.4894L165.307 74.4816Z" fill="#FFDEB6" stroke="#1A1A1A" stroke-width="1.01241" stroke-miterlimit="10"/>
<path d="M163.902 66.5103C160.736 59.93 155.959 61.3892 155.959 61.3892" stroke="#1A1A1A" stroke-width="0.506159" stroke-miterlimit="10" stroke-linecap="round" stroke-linejoin="round"/>
<path d="M161.424 63.248C161.424 63.248 156.564 65.8499 159.772 69.7595" stroke="#1A1A1A" stroke-width="0.506159" stroke-miterlimit="10" stroke-linecap="round" stroke-linejoin="round"/>
<path d="M227.117 42.8748C227.034 40.2179 226.69 36.033 225.493 32.1096C225.245 31.1184 224.997 30.1961 224.735 29.3425L226.319 29.7555C224.969 20.601 204.375 -2.05834 178.384 10.937C152.394 23.9324 162.209 58.1554 162.209 58.1554L162.457 56.4483C163.558 54.9616 168.17 48.34 169.643 39.7361C187.663 42.7234 201.415 32.5638 208.491 25.5843C209.441 29.1085 212.249 36.501 219.862 41.8286C222.175 51.5888 227.048 57.6047 227.048 57.6047C227.461 51.9743 227.42 47.101 227.117 42.8748Z" fill="#1A1A1A"/>
<path d="M194.845 54.375V66.8828C194.845 67.2741 194.915 67.6514 195.054 67.9868C195.585 69.3284 197.137 69.9713 198.534 69.6079L201.539 68.8113" stroke="#1A1A1A" stroke-width="0.968109" stroke-miterlimit="10" stroke-linecap="round" stroke-linejoin="round"/>
<rect x="177.97" y="148.125" width="33.75" height="5.625" fill="black"/>
<rect x="177.97" y="163.125" width="33.75" height="5.625" fill="black"/>
<mask id="mask0_572_19982" style="mask-type:alpha" maskUnits="userSpaceOnUse" x="114" y="0" width="81" height="180">
<rect x="114.22" width="80.625" height="180" fill="#D9D9D9"/>
</mask>
<g mask="url(#mask0_572_19982)">
<path d="M248.95 49.3167C242.425 41.6488 237.208 32.7008 232.775 20.1321C228.012 6.65496 212.415 12.1339 212.415 12.1339C212.415 12.1339 199.406 -4.59209 179.844 1.23105C160.296 7.05418 153.495 20.9857 153.096 37.5327C152.697 54.0798 139.687 56.6679 129.666 75.8167C111.976 109.613 141.766 138.082 195.992 130.18L196.06 129.657C201.402 131.281 207.941 131.983 215.939 131.515C281.067 127.633 274.79 79.7126 248.95 49.3167Z" fill="#D1D1D1"/>
<path d="M275.382 180C277.433 154.67 251.209 142.239 251.209 142.239L211.865 120.778H177.876L138.518 142.239C138.518 142.239 112.197 153.844 114.344 180" fill="#EDEDED"/>
<path d="M177.032 180V127.5C193.532 137.25 207.657 130.312 212.657 125.625L213.595 180H177.032Z" fill="white"/>
<path d="M177.876 126.023C177.876 126.023 191.477 138.784 211.865 126.023H177.876Z" fill="#F4F4F2"/>
<path d="M177.876 126.023C177.876 126.023 191.477 138.784 211.865 126.023" stroke="#1A1A1A" stroke-width="1.04403" stroke-miterlimit="10" stroke-linejoin="round"/>
<path d="M177.875 180V120.778L159.359 143.795L166.022 180" fill="#D1D1D1"/>
<path d="M177.97 127.5V95.625H212.657L211.72 126.562C197.657 136.875 183.282 130.937 177.97 127.5Z" fill="#EDEDED"/>
<path d="M177.97 95.6255C177.97 95.6255 180.803 108.501 194.303 108.745C212.011 109.047 211.719 96.2065 211.719 96.2065C211.719 96.2065 209.303 99.9832 195.608 99.9949C180.331 100.006 177.97 95.6255 177.97 95.6255Z" fill="#1A1A1A"/>
<path d="M227.117 45.6138C227.117 45.6138 231.081 102.73 195.372 102.73C159.662 102.73 162.525 45.6138 162.525 45.6138C162.525 45.6138 160.791 11.6387 196.583 11.6387C229.884 11.6387 227.117 45.6138 227.117 45.6138Z" fill="#EDEDED"/>
<path d="M181.854 58.9947C183.489 58.9947 184.814 57.6696 184.814 56.0349C184.814 54.4003 183.489 53.0752 181.854 53.0752C180.22 53.0752 178.895 54.4003 178.895 56.0349C178.895 57.6696 180.22 58.9947 181.854 58.9947Z" fill="#1A1A1A"/>
<path d="M185.612 77.1382C185.612 77.1382 190.086 79.9327 195.978 79.9327C201.87 79.9327 206.344 77.1382 206.344 77.1382" stroke="#1A1A1A" stroke-width="0.958398" stroke-miterlimit="10" stroke-linecap="round" stroke-linejoin="round"/>
<path d="M188.971 43.1084C188.82 43.4113 188.09 47.0318 188.09 47.0318L171.805 48.7801L175.687 45.9856C176.678 45.3523 177.779 44.9118 178.936 44.6778L188.971 43.1084Z" fill="#1A1A1A"/>
<path d="M165.307 74.4816C162.898 77.7993 158.231 75.6242 155.519 71.3016C152.821 66.979 151.554 58.32 155.519 55.9797C159.483 53.6395 162.829 58.4714 162.829 58.4714C162.829 58.4714 163.792 67.213 164.494 70.4894L165.307 74.4816Z" fill="#EDEDED"/>
<path d="M163.902 66.5103C160.736 59.93 155.959 61.3892 155.959 61.3892" stroke="#1A1A1A" stroke-width="0.506159" stroke-miterlimit="10" stroke-linecap="round" stroke-linejoin="round"/>
<path d="M161.424 63.248C161.424 63.248 156.564 65.8499 159.772 69.7595" stroke="#1A1A1A" stroke-width="0.506159" stroke-miterlimit="10" stroke-linecap="round" stroke-linejoin="round"/>
<path d="M227.117 42.8748C227.034 40.2179 226.69 36.033 225.493 32.1096C225.245 31.1184 224.997 30.1961 224.735 29.3425L226.319 29.7555C224.969 20.601 204.375 -2.05834 178.384 10.937C152.394 23.9324 162.209 58.1554 162.209 58.1554L162.457 56.4483C163.558 54.9616 168.17 48.34 169.643 39.7361C187.663 42.7234 201.415 32.5638 208.491 25.5843C209.441 29.1085 212.249 36.501 219.862 41.8286C222.175 51.5888 227.048 57.6047 227.048 57.6047C227.461 51.9743 227.42 47.101 227.117 42.8748Z" fill="#D1D1D1"/>
<path d="M194.845 54.375V66.8828C194.845 67.2741 194.915 67.6514 195.054 67.9868C195.585 69.3284 197.137 69.9713 198.534 69.6079L201.539 68.8113" stroke="#1A1A1A" stroke-width="0.968109" stroke-miterlimit="10" stroke-linecap="round" stroke-linejoin="round"/>
<rect x="177.97" y="148.125" width="33.75" height="5.625" fill="black"/>
<rect x="177.97" y="163.125" width="33.75" height="5.625" fill="black"/>
</g>
</svg>
