<svg width="159" height="180" viewBox="0 0 159 180" fill="none" xmlns="http://www.w3.org/2000/svg">
<path d="M151.087 179.178C151.087 152.93 120.728 137.569 120.728 137.569H84.2975H78.672H42.2298C42.2298 137.569 11.8711 152.93 11.8711 179.178" fill="url(#paint0_linear_572_19495)"/>
<path d="M141.351 154.316H21.6074L28.1724 147.504H134.786L141.351 154.316Z" fill="black"/>
<path d="M149.9 170.312H12.8105L15.9815 163.5H146.683L149.9 170.312Z" fill="black"/>
<path d="M61.9245 105.871V126.952C61.9245 126.952 57.3912 134.938 42.2295 137.569H119.682C119.682 137.569 100.258 133.529 98.8482 126.952V105.871" fill="#FFDEB6"/>
<path d="M62.3359 106.446C62.3359 106.446 67.7852 117.263 76.6051 122.289C83.0057 125.942 91.2854 124.521 95.6307 118.566C97.8034 115.595 99.4476 111.226 99.4476 104.802C99.4476 104.802 92.3893 114.104 81.8665 114.538C71.332 114.973 62.3359 106.446 62.3359 106.446Z" fill="#1A1A1A"/>
<path d="M107.398 64.3903C107.398 64.3903 110.769 114.538 80.4453 114.538C50.1218 114.538 52.5646 64.3903 52.5646 64.3903C52.5646 64.3903 51.0966 34.5601 81.4788 34.5601C109.759 34.5601 107.398 64.3903 107.398 64.3903Z" fill="#FFDEB6"/>
<path d="M107.399 74.2786C107.399 74.2786 110.241 70.1799 113.599 72.1647C116.97 74.1495 115.901 81.5013 113.599 85.1772C111.298 88.8532 107.598 90.6618 105.543 87.8432" fill="#FFDEB6"/>
<path d="M113.236 76.7686C113.236 76.7686 109.442 75.5002 106.753 81.0905" stroke="#1A1A1A" stroke-width="0.44761" stroke-miterlimit="10" stroke-linecap="round" stroke-linejoin="round"/>
<path d="M108.585 78.3535C108.585 78.3535 112.719 80.5614 109.983 83.885" stroke="#1A1A1A" stroke-width="0.44761" stroke-miterlimit="10" stroke-linecap="round" stroke-linejoin="round"/>
<path d="M52.7763 74.2786C52.7763 74.2786 49.9342 70.1799 46.5754 72.1647C43.2048 74.1495 44.2735 81.5013 46.5754 85.1772C48.8773 88.8532 52.5767 90.6618 54.6319 87.8432" fill="#FFDEB6"/>
<path d="M46.9395 76.7686C46.9395 76.7686 50.7328 75.5002 53.4222 81.0905" stroke="#1A1A1A" stroke-width="0.44761" stroke-miterlimit="10" stroke-linecap="round" stroke-linejoin="round"/>
<path d="M51.5787 78.3535C51.5787 78.3535 47.4448 80.5614 50.1812 83.885" stroke="#1A1A1A" stroke-width="0.44761" stroke-miterlimit="10" stroke-linecap="round" stroke-linejoin="round"/>
<path d="M78.6729 73.3389V83.8499C78.6729 84.1788 78.7316 84.4958 78.849 84.7777C79.2953 85.9051 80.5989 86.4454 81.7733 86.14L84.2983 85.4706" stroke="#1A1A1A" stroke-width="0.847461" stroke-miterlimit="10" stroke-linecap="round" stroke-linejoin="round"/>
<path d="M76.2417 56.6621C76.0186 56.9909 74.7032 61.1601 74.7032 61.1601H60.2227L65.1435 58.3768C66.3884 57.7543 67.7389 57.3785 69.1365 57.2611L76.2417 56.6621Z" fill="#1A1A1A"/>
<path d="M85.3789 56.6621C85.602 56.9909 86.9174 61.1601 86.9174 61.1601H101.398L96.4772 58.3768C95.2323 57.7543 93.8817 57.3785 92.4841 57.2611L85.3789 56.6621Z" fill="#1A1A1A"/>
<path d="M68.9722 73.5622C70.3603 73.5622 71.4855 72.4369 71.4855 71.0489C71.4855 69.6609 70.3603 68.5356 68.9722 68.5356C67.5842 68.5356 66.459 69.6609 66.459 71.0489C66.459 72.4369 67.5842 73.5622 68.9722 73.5622Z" fill="#1A1A1A"/>
<path d="M94.9152 71.0489C94.9152 72.4347 93.7877 73.5622 92.4019 73.5622C91.0161 73.5622 89.8887 72.4347 89.8887 71.0489C89.8887 69.6631 91.0161 68.5356 92.4019 68.5356C93.7877 68.5356 94.9152 69.6631 94.9152 71.0489Z" fill="#1A1A1A"/>
<path d="M72.1777 91.3076C72.1777 91.3076 76.3117 94.1967 81.3147 94.1967C86.3177 94.1967 89.7823 91.3076 89.7823 91.3076" stroke="#1A1A1A" stroke-width="0.847461" stroke-miterlimit="10" stroke-linecap="round" stroke-linejoin="round"/>
<path d="M66.4935 82.2527C72.3181 82.2527 77.0398 77.531 77.0398 71.7064C77.0398 65.8819 72.3181 61.1602 66.4935 61.1602C60.669 61.1602 55.9473 65.8819 55.9473 71.7064C55.9473 77.531 60.669 82.2527 66.4935 82.2527Z" stroke="#1A1A1A" stroke-width="0.419189" stroke-miterlimit="10" stroke-linecap="round" stroke-linejoin="round"/>
<path d="M92.4017 82.2527C98.2263 82.2527 102.948 77.531 102.948 71.7064C102.948 65.8819 98.2263 61.1602 92.4017 61.1602C86.5772 61.1602 81.8555 65.8819 81.8555 71.7064C81.8555 77.531 86.5772 82.2527 92.4017 82.2527Z" stroke="#1A1A1A" stroke-width="0.419189" stroke-miterlimit="10" stroke-linecap="round" stroke-linejoin="round"/>
<path d="M77.04 71.7063C77.04 71.7063 79.5415 69.381 81.8552 71.7063" stroke="#1A1A1A" stroke-width="0.419189" stroke-miterlimit="10" stroke-linecap="round" stroke-linejoin="round"/>
<path d="M56.3469 74.5483L52.6357 71.624" stroke="#1A1A1A" stroke-width="0.419189" stroke-miterlimit="10" stroke-linecap="round" stroke-linejoin="round"/>
<path d="M102.572 74.5485L107.517 70.6611" stroke="#1A1A1A" stroke-width="0.419189" stroke-miterlimit="10" stroke-linecap="round" stroke-linejoin="round"/>
<path d="M79.9758 28.5C43.0403 28.5 46.775 53.6326 52.3887 73.5624C52.3887 73.5624 57.3917 64.2728 56.3934 57.7078C77.3686 55.3355 96.1827 43.7674 96.2767 43.7087C97.7212 55.171 107.645 72.1766 107.645 72.1766C113.235 53.6326 119.037 28.5 79.9758 28.5Z" fill="#1A1A1A"/>
<mask id="mask0_572_19495" style="mask-type:alpha" maskUnits="userSpaceOnUse" x="11" y="28" width="69" height="152">
<rect x="11.8711" y="28.5" width="68.1163" height="151.5" fill="#D9D9D9"/>
</mask>
<g mask="url(#mask0_572_19495)">
<path d="M151.087 179.178C151.087 152.93 120.728 137.569 120.728 137.569H84.2975H78.672H42.2298C42.2298 137.569 11.8711 152.93 11.8711 179.178" fill="#EDEDED"/>
<path d="M141.351 154.316H21.6074L28.1724 147.504H134.786L141.351 154.316Z" fill="black"/>
<path d="M149.9 170.312H12.8105L15.9815 163.5H146.683L149.9 170.312Z" fill="black"/>
<path d="M61.9245 105.871V126.952C61.9245 126.952 57.3912 134.938 42.2295 137.569H119.682C119.682 137.569 100.258 133.529 98.8482 126.952V105.871" fill="#EDEDED"/>
<path d="M62.3359 106.446C62.3359 106.446 67.7852 117.263 76.6051 122.289C83.0057 125.942 91.2854 124.521 95.6307 118.566C97.8034 115.595 99.4476 111.226 99.4476 104.802C99.4476 104.802 92.3893 114.104 81.8665 114.538C71.332 114.973 62.3359 106.446 62.3359 106.446Z" fill="#1A1A1A"/>
<path d="M107.398 64.3903C107.398 64.3903 110.769 114.538 80.4453 114.538C50.1218 114.538 52.5646 64.3903 52.5646 64.3903C52.5646 64.3903 51.0966 34.5601 81.4788 34.5601C109.759 34.5601 107.398 64.3903 107.398 64.3903Z" fill="#EDEDED"/>
<path d="M52.7763 74.2786C52.7763 74.2786 49.9342 70.1799 46.5754 72.1647C43.2048 74.1495 44.2735 81.5013 46.5754 85.1772C48.8773 88.8532 52.5767 90.6618 54.6319 87.8432" fill="#EDEDED"/>
<path d="M46.9395 76.7686C46.9395 76.7686 50.7328 75.5002 53.4222 81.0905" stroke="#1A1A1A" stroke-width="0.44761" stroke-miterlimit="10" stroke-linecap="round" stroke-linejoin="round"/>
<path d="M51.5787 78.3535C51.5787 78.3535 47.4448 80.5614 50.1812 83.885" stroke="#1A1A1A" stroke-width="0.44761" stroke-miterlimit="10" stroke-linecap="round" stroke-linejoin="round"/>
<path d="M78.6729 73.3389V83.8499C78.6729 84.1788 78.7316 84.4958 78.849 84.7777C79.2953 85.9051 80.5989 86.4454 81.7733 86.14L84.2983 85.4706" stroke="#1A1A1A" stroke-width="0.847461" stroke-miterlimit="10" stroke-linecap="round" stroke-linejoin="round"/>
<path d="M76.2417 56.6621C76.0186 56.9909 74.7032 61.1601 74.7032 61.1601H60.2227L65.1435 58.3768C66.3884 57.7543 67.7389 57.3785 69.1365 57.2611L76.2417 56.6621Z" fill="#1A1A1A"/>
<path d="M68.9722 73.5622C70.3603 73.5622 71.4855 72.4369 71.4855 71.0489C71.4855 69.6609 70.3603 68.5356 68.9722 68.5356C67.5842 68.5356 66.459 69.6609 66.459 71.0489C66.459 72.4369 67.5842 73.5622 68.9722 73.5622Z" fill="#1A1A1A"/>
<path d="M72.1777 91.3076C72.1777 91.3076 76.3117 94.1967 81.3147 94.1967C86.3177 94.1967 89.7823 91.3076 89.7823 91.3076" stroke="#1A1A1A" stroke-width="0.847461" stroke-miterlimit="10" stroke-linecap="round" stroke-linejoin="round"/>
<path d="M66.4935 82.2527C72.3181 82.2527 77.0398 77.531 77.0398 71.7064C77.0398 65.8819 72.3181 61.1602 66.4935 61.1602C60.669 61.1602 55.9473 65.8819 55.9473 71.7064C55.9473 77.531 60.669 82.2527 66.4935 82.2527Z" stroke="#1A1A1A" stroke-width="0.419189" stroke-miterlimit="10" stroke-linecap="round" stroke-linejoin="round"/>
<path d="M77.04 71.7063C77.04 71.7063 79.5415 69.381 81.8552 71.7063" stroke="#1A1A1A" stroke-width="0.419189" stroke-miterlimit="10" stroke-linecap="round" stroke-linejoin="round"/>
<path d="M56.3469 74.5483L52.6357 71.624" stroke="#1A1A1A" stroke-width="0.419189" stroke-miterlimit="10" stroke-linecap="round" stroke-linejoin="round"/>
<path d="M79.9758 28.5C43.0403 28.5 46.775 53.6326 52.3887 73.5624C52.3887 73.5624 57.3917 64.2728 56.3934 57.7078C77.3686 55.3355 96.1827 43.7674 96.2767 43.7087C97.7212 55.171 107.645 72.1766 107.645 72.1766C113.235 53.6326 119.037 28.5 79.9758 28.5Z" fill="#80858A"/>
</g>
<path d="M127.242 42.4328H125.483V36.0385C125.483 30.345 120.723 25.713 114.872 25.713H108.579V24.0015H114.872C121.692 24.0015 127.242 29.4025 127.242 36.0403V42.4328Z" fill="#333343"/>
<path d="M36.586 41.855H34.8271V36.0388C34.8271 29.401 40.3753 24 47.1971 24H53.4092V25.7116H47.1971C41.3458 25.7116 36.586 30.3435 36.586 36.0371V41.855Z" fill="#333343"/>
<path d="M53.8627 114.311H47.1951C40.3751 114.311 34.8252 108.91 34.8252 102.272V95.4331H36.5841V102.272C36.5841 107.966 41.3439 112.598 47.1951 112.598H53.8627V114.311Z" fill="#333343"/>
<path d="M114.873 114.311H108.58V112.6H114.873C120.724 112.6 125.484 107.968 125.484 102.274V95.6064H127.243V102.274C127.241 108.912 121.693 114.311 114.873 114.311Z" fill="#333343"/>
<path d="M77.0821 4.76697L76.9174 0.0439453L76.5811 0.0579602L76.7457 4.78099C76.8596 4.77398 76.97 4.77047 77.0821 4.76697Z" fill="#333343"/>
<path d="M40.3821 15.9015L37.8734 11.8862L37.5879 12.0649L40.0966 16.0802C40.1912 16.0206 40.2875 15.9593 40.3821 15.9015Z" fill="#333343"/>
<path d="M38.2096 17.3031L35.5625 13.3789L35.2822 13.5681L37.9293 17.4923C38.0256 17.431 38.115 17.3679 38.2096 17.3031Z" fill="#333343"/>
<path d="M49.5147 11.0579L47.5947 6.74658L47.2881 6.88498L49.2081 11.1928C49.3097 11.1455 49.4096 11.1017 49.5147 11.0579Z" fill="#333343"/>
<path d="M47.1669 12.1452L45.098 7.90039L44.7949 8.0493L46.8656 12.2941C46.9672 12.2468 47.0653 12.196 47.1669 12.1452Z" fill="#333343"/>
<path d="M44.8631 13.3197L42.6418 9.14502L42.3457 9.30269L44.5653 13.4756C44.6634 13.4231 44.765 13.3723 44.8631 13.3197Z" fill="#333343"/>
<path d="M30.0587 23.6588L26.8826 20.1323L26.6338 20.3583L29.8064 23.8848C29.8905 23.8077 29.9746 23.7342 30.0587 23.6588Z" fill="#333343"/>
<path d="M36.092 18.7886L33.3065 14.9556L33.0332 15.1535L35.8187 18.9866C35.9098 18.92 36.0009 18.8552 36.092 18.7886Z" fill="#333343"/>
<path d="M28.1667 25.4181L24.8697 22.002L24.6279 22.235L27.9249 25.6511C28.0038 25.5758 28.0844 25.4952 28.1667 25.4181Z" fill="#333343"/>
<path d="M34.023 20.3409L31.1061 16.606L30.8398 16.8144L33.7567 20.5459C33.8443 20.4758 33.9354 20.4093 34.023 20.3409Z" fill="#333343"/>
<path d="M32.0116 21.9647L28.9634 18.3296L28.7041 18.5451L31.7558 22.1802C31.8434 22.1101 31.9275 22.0383 32.0116 21.9647Z" fill="#333343"/>
<path d="M51.8957 10.0507L50.128 5.67627L49.8145 5.80416L51.5821 10.1803C51.6872 10.1365 51.7923 10.0927 51.8957 10.0507Z" fill="#333343"/>
<path d="M69.3541 5.42084L68.6971 0.745117L68.3643 0.792418L69.0212 5.46814C69.1316 5.45062 69.2419 5.4331 69.3541 5.42084Z" fill="#333343"/>
<path d="M64.2586 6.29987L63.2776 1.68896L62.9482 1.75904L63.9293 6.37345C64.0397 6.34892 64.1465 6.32264 64.2586 6.29987Z" fill="#333343"/>
<path d="M71.9208 5.10653L71.4286 0.415039L71.0957 0.448324L71.5897 5.14332C71.6983 5.13281 71.8087 5.11704 71.9208 5.10653Z" fill="#333343"/>
<path d="M74.4977 4.89513L74.1684 0.182617L73.832 0.205391L74.1614 4.9179C74.2753 4.90739 74.3856 4.90214 74.4977 4.89513Z" fill="#333343"/>
<path d="M66.7969 5.8146L65.9788 1.17041L65.6494 1.22647L66.4675 5.86891C66.5762 5.85139 66.6865 5.83387 66.7969 5.8146Z" fill="#333343"/>
<path d="M61.7354 6.87742L60.5932 2.2998L60.2656 2.38039L61.4078 6.95451C61.5165 6.92823 61.6268 6.90545 61.7354 6.87742Z" fill="#333343"/>
<path d="M56.7604 8.29023L55.3011 3.80371L54.9805 3.90882L56.4398 8.39535C56.5484 8.36031 56.6517 8.32702 56.7604 8.29023Z" fill="#333343"/>
<path d="M54.3114 9.12549L52.6979 4.69678L52.3809 4.81065L53.9908 9.23936C54.0994 9.19907 54.2063 9.16578 54.3114 9.12549Z" fill="#333343"/>
<path d="M59.2357 7.53463L57.9393 3.00781L57.6152 3.10241L58.9151 7.63273C59.0202 7.59945 59.1271 7.56441 59.2357 7.53463Z" fill="#333343"/>
<path d="M42.6004 14.5679L40.2388 10.4756L39.9463 10.6438L42.3113 14.7396C42.4042 14.6818 42.5023 14.6222 42.6004 14.5679Z" fill="#333343"/>
<path d="M26.3323 27.2438L22.9162 23.9468L22.6797 24.1885L26.0958 27.4855C26.1782 27.405 26.2552 27.3244 26.3323 27.2438Z" fill="#333343"/>
<path d="M8.33206 58.239L3.77722 56.9321L3.68262 57.2562L8.23396 58.5596C8.269 58.451 8.30228 58.3476 8.33206 58.239Z" fill="#333343"/>
<path d="M9.0941 55.7668L4.58656 54.3022L4.48145 54.6228L8.98899 56.0874C9.02578 55.9788 9.06082 55.8737 9.0941 55.7668Z" fill="#333343"/>
<path d="M7.0762 63.2549L2.43726 62.2686L2.36719 62.5979L7.00612 63.5842C7.0289 63.4738 7.05342 63.3635 7.0762 63.2549Z" fill="#333343"/>
<path d="M9.93608 53.3216L5.48985 51.7046L5.37598 52.0217L9.82571 53.6422C9.86075 53.5335 9.89929 53.4267 9.93608 53.3216Z" fill="#333343"/>
<path d="M5.62542 73.4836L0.883126 73.1543L0.860352 73.4907L5.60615 73.8235C5.61141 73.7096 5.61841 73.5993 5.62542 73.4836Z" fill="#333343"/>
<path d="M5.49005 76.068L0.733741 75.9033L0.719727 76.2397L5.47604 76.4044C5.47954 76.2905 5.48655 76.1801 5.49005 76.068Z" fill="#333343"/>
<path d="M10.8753 50.9128L6.48335 49.1382L6.35547 49.4518L10.7474 51.2264C10.7877 51.1178 10.8315 51.0179 10.8753 50.9128Z" fill="#333343"/>
<path d="M5.85259 70.9123L1.12606 70.4165L1.09277 70.7494L5.8158 71.2451C5.82631 71.133 5.84383 71.0226 5.85259 70.9123Z" fill="#333343"/>
<path d="M6.17313 68.346L1.47113 67.6855L1.42383 68.0184L6.12583 68.6789C6.14335 68.5667 6.15561 68.4564 6.17313 68.346Z" fill="#333343"/>
<path d="M6.57516 65.7914L1.90644 64.9697L1.84863 65.2991L6.52085 66.1242C6.54188 66.0138 6.55764 65.9017 6.57516 65.7914Z" fill="#333343"/>
<path d="M7.65872 60.7356L3.06008 59.5898L2.97949 59.9174L7.57989 61.0667C7.60792 60.9545 7.63244 60.8424 7.65872 60.7356Z" fill="#333343"/>
<path d="M19.673 35.1459L15.8347 32.3569L15.6367 32.6302L19.4768 35.4192C19.5399 35.3281 19.6064 35.237 19.673 35.1459Z" fill="#333343"/>
<path d="M21.2311 33.081L17.4927 30.1606L17.2842 30.4269L21.0262 33.3473C21.0962 33.2597 21.1593 33.1686 21.2311 33.081Z" fill="#333343"/>
<path d="M18.1809 37.2565L14.2497 34.606L14.0605 34.8863L17.9917 37.5368C18.053 37.4422 18.1179 37.3476 18.1809 37.2565Z" fill="#333343"/>
<path d="M24.565 29.1302L21.0385 25.9541L20.8125 26.2029L24.3425 29.379C24.4178 29.2984 24.4914 29.2143 24.565 29.1302Z" fill="#333343"/>
<path d="M22.8668 31.0801L19.2282 28.0283L19.0127 28.2876L22.6513 31.3393C22.7214 31.2517 22.7932 31.1642 22.8668 31.0801Z" fill="#333343"/>
<path d="M11.8866 48.532L7.56125 46.605L7.42285 46.9116L11.7517 48.8421C11.799 48.7405 11.8428 48.6354 11.8866 48.532Z" fill="#333343"/>
<path d="M12.988 46.1929L8.73094 44.1152L8.58203 44.4183L12.8391 46.4925C12.8864 46.3927 12.9407 46.2946 12.988 46.1929Z" fill="#333343"/>
<path d="M16.7674 39.4243L12.7451 36.9121L12.5664 37.1977L16.5887 39.7098C16.65 39.6117 16.7096 39.5189 16.7674 39.4243Z" fill="#333343"/>
<path d="M5.43249 78.82C5.43249 78.7622 5.436 78.7079 5.436 78.6519H0.679688V78.9882H5.436C5.436 78.9322 5.43249 78.8778 5.43249 78.82Z" fill="#333343"/>
<path d="M15.4308 41.6328L11.3244 39.2607L11.1562 39.5533L15.2591 41.9218C15.3117 41.829 15.373 41.7309 15.4308 41.6328Z" fill="#333343"/>
<path d="M14.1712 43.8926L9.98775 41.666L9.83008 41.9621L14.017 44.1887C14.0661 44.0923 14.1169 43.9907 14.1712 43.8926Z" fill="#333343"/>
<path d="M143.791 41.8957L147.843 39.5553L147.675 39.2627L143.619 41.6032C143.677 41.703 143.735 41.7976 143.791 41.8957Z" fill="#333343"/>
<path d="M142.458 39.6801L146.433 37.1977L146.254 36.9121L142.279 39.3945C142.341 39.4873 142.397 39.582 142.458 39.6801Z" fill="#333343"/>
<path d="M145.038 44.1628L149.171 41.966L149.012 41.6699L144.879 43.8668C144.933 43.9649 144.988 44.0647 145.038 44.1628Z" fill="#333343"/>
<path d="M147.301 48.8175L151.573 46.915L151.434 46.6084L147.163 48.5074C147.214 48.609 147.258 48.7141 147.301 48.8175Z" fill="#333343"/>
<path d="M146.214 46.4697L150.418 44.4183L150.269 44.1152L146.066 46.1667C146.112 46.2683 146.163 46.3681 146.214 46.4697Z" fill="#333343"/>
<path d="M148.31 51.1997L152.646 49.4479L152.518 49.1343L148.184 50.8861C148.226 50.993 148.269 51.0946 148.31 51.1997Z" fill="#333343"/>
<path d="M136.387 31.3026L139.984 28.2842L139.768 28.0249L136.172 31.0469C136.242 31.1345 136.317 31.2185 136.387 31.3026Z" fill="#333343"/>
<path d="M134.694 29.3486L138.187 26.2058L137.961 25.957L134.472 29.0999C134.547 29.1805 134.621 29.2646 134.694 29.3486Z" fill="#333343"/>
<path d="M141.053 37.5036L144.937 34.8828L144.748 34.6025L140.86 37.2233C140.929 37.3179 140.99 37.4125 141.053 37.5036Z" fill="#333343"/>
<path d="M138.015 33.3175L141.713 30.4269L141.505 30.1606L137.807 33.0477C137.88 33.1388 137.947 33.2299 138.015 33.3175Z" fill="#333343"/>
<path d="M139.567 35.384L143.363 32.6249L143.165 32.3516L139.369 35.1107C139.436 35.2036 139.504 35.2929 139.567 35.384Z" fill="#333343"/>
<path d="M152.544 66.1121L157.151 65.301L157.093 64.9717L152.489 65.7828C152.51 65.8897 152.523 66 152.544 66.1121Z" fill="#333343"/>
<path d="M152.938 68.6673L157.577 68.0138L157.53 67.6792L152.891 68.3326C152.906 68.4448 152.924 68.5569 152.938 68.6673Z" fill="#333343"/>
<path d="M79.5325 4.71952C79.5763 4.71952 79.6236 4.71952 79.6674 4.72302V0H79.3311V4.72302C79.3994 4.72302 79.4659 4.71952 79.5325 4.71952Z" fill="#333343"/>
<path d="M153.591 76.4004L158.279 76.2358L158.267 75.8994L153.577 76.0641C153.581 76.1762 153.588 76.2901 153.591 76.4004Z" fill="#333343"/>
<path d="M132.935 27.4523L136.316 24.1885L136.079 23.9468L132.698 27.214C132.777 27.2911 132.858 27.3717 132.935 27.4523Z" fill="#333343"/>
<path d="M153.463 73.818L158.143 73.4921L158.12 73.1558L153.442 73.4816C153.449 73.592 153.453 73.7023 153.463 73.818Z" fill="#333343"/>
<path d="M150.825 58.5421L155.311 57.2562L155.217 56.9321L150.727 58.218C150.762 58.3266 150.795 58.4352 150.825 58.5421Z" fill="#333343"/>
<path d="M149.236 53.6176L153.624 52.0217L153.51 51.7046L149.122 53.3005C149.161 53.4056 149.194 53.5143 149.236 53.6176Z" fill="#333343"/>
<path d="M152.058 63.568L156.632 62.594L156.562 62.2646L151.988 63.2387C152.011 63.3491 152.034 63.4594 152.058 63.568Z" fill="#333343"/>
<path d="M150.066 56.0667L154.512 54.6214L154.409 54.3008L149.963 55.7461C150 55.8547 150.033 55.9616 150.066 56.0667Z" fill="#333343"/>
<path d="M151.482 61.0454L156.019 59.9137L155.939 59.5879L151.401 60.7196C151.428 60.83 151.456 60.9368 151.482 61.0454Z" fill="#333343"/>
<path d="M153.249 71.2381L157.904 70.7494L157.867 70.4165L153.209 70.9053C153.223 71.0156 153.237 71.1278 153.249 71.2381Z" fill="#333343"/>
<path d="M97.5948 6.94245L98.73 2.38234L98.4024 2.30176L97.2637 6.86186C97.3758 6.88814 97.4879 6.91442 97.5948 6.94245Z" fill="#333343"/>
<path d="M105.012 9.21659L106.615 4.81065L106.298 4.69678L104.695 9.10622C104.8 9.14126 104.907 9.17805 105.012 9.21659Z" fill="#333343"/>
<path d="M95.0754 6.35602L96.053 1.75562L95.7236 1.68555L94.7461 6.28419C94.8565 6.30872 94.9633 6.33675 95.0754 6.35602Z" fill="#333343"/>
<path d="M102.567 8.37363L104.019 3.90638L103.698 3.80127L102.246 8.26852C102.351 8.30706 102.46 8.34035 102.567 8.37363Z" fill="#333343"/>
<path d="M100.095 7.6118L101.387 3.099L101.063 3.00439L99.7705 7.51544C99.8791 7.54873 99.986 7.58202 100.095 7.6118Z" fill="#333343"/>
<path d="M92.535 5.85771L93.3496 1.22578L93.0203 1.16797L92.2021 5.8034C92.3125 5.82267 92.4246 5.83669 92.535 5.85771Z" fill="#333343"/>
<path d="M89.9793 5.45763L90.6363 0.792418L90.3034 0.745117L89.6465 5.41033C89.7569 5.42785 89.8672 5.44011 89.9793 5.45763Z" fill="#333343"/>
<path d="M84.8393 4.9109L85.1686 0.205391L84.8323 0.182617L84.5029 4.89163C84.6133 4.89864 84.7237 4.90564 84.8393 4.9109Z" fill="#333343"/>
<path d="M82.2553 4.77561L82.42 0.0525891L82.0836 0.0385742L81.9189 4.7581C82.0293 4.76686 82.1414 4.77036 82.2553 4.77561Z" fill="#333343"/>
<path d="M87.4127 5.13631L87.905 0.448324L87.5704 0.415039L87.0781 5.10127C87.1902 5.11003 87.3006 5.1258 87.4127 5.13631Z" fill="#333343"/>
<path d="M116.707 14.7098L119.055 10.6438L118.762 10.4756L116.418 14.5382C116.514 14.5942 116.612 14.652 116.707 14.7098Z" fill="#333343"/>
<path d="M107.424 10.1558L109.183 5.80416L108.869 5.67627L107.11 10.0279C107.217 10.0682 107.319 10.112 107.424 10.1558Z" fill="#333343"/>
<path d="M118.92 16.0504L121.41 12.0649L121.122 11.8862L118.633 15.8717C118.731 15.933 118.826 15.9891 118.92 16.0504Z" fill="#333343"/>
<path d="M121.089 17.4605L123.717 13.5662L123.438 13.377L120.811 17.2713C120.903 17.3362 120.994 17.401 121.089 17.4605Z" fill="#333343"/>
<path d="M129.221 23.8515L132.364 20.3583L132.115 20.1323L128.969 23.6255C129.053 23.7026 129.14 23.7744 129.221 23.8515Z" fill="#333343"/>
<path d="M127.269 22.1505L130.291 18.5504L130.032 18.335L127.01 21.935C127.097 22.0051 127.185 22.0804 127.269 22.1505Z" fill="#333343"/>
<path d="M123.2 18.9534L125.963 15.1501L125.689 14.9521L122.927 18.7554C123.023 18.822 123.111 18.8903 123.2 18.9534Z" fill="#333343"/>
<path d="M131.106 25.619L134.373 22.2379L134.13 22.0049L130.866 25.386C130.949 25.4648 131.026 25.5419 131.106 25.619Z" fill="#333343"/>
<path d="M112.146 12.2699L114.204 8.05321L113.901 7.9043L111.843 12.1228C111.944 12.1701 112.044 12.2209 112.146 12.2699Z" fill="#333343"/>
<path d="M109.805 11.17L111.711 6.88498L111.405 6.74658L109.495 11.0351C109.6 11.0789 109.7 11.1227 109.805 11.17Z" fill="#333343"/>
<path d="M114.45 13.4512L116.653 9.30806L116.357 9.15039L114.155 13.2971C114.252 13.3461 114.35 13.3969 114.45 13.4512Z" fill="#333343"/>
<path d="M125.265 20.5127L128.156 16.811L127.889 16.6025L124.997 20.3042C125.086 20.3796 125.178 20.4461 125.265 20.5127Z" fill="#333343"/>
<path d="M109.495 146.608L111.405 150.897L111.711 150.758L109.805 146.473C109.7 146.517 109.6 146.561 109.495 146.608Z" fill="#333343"/>
<path d="M116.417 143.103L118.761 147.165L119.054 146.997L116.706 142.931C116.613 142.987 116.515 143.045 116.417 143.103Z" fill="#333343"/>
<path d="M120.809 140.367L123.436 144.261L123.715 144.072L121.087 140.178C120.994 140.239 120.903 140.304 120.809 140.367Z" fill="#333343"/>
<path d="M111.843 145.52L113.901 149.737L114.204 149.588L112.146 145.371C112.044 145.42 111.944 145.469 111.843 145.52Z" fill="#333343"/>
<path d="M114.149 144.348L116.353 148.495L116.649 148.337L114.445 144.19C114.349 144.243 114.251 144.294 114.149 144.348Z" fill="#333343"/>
<path d="M118.636 141.768L121.125 145.753L121.412 145.574L118.923 141.589C118.825 141.65 118.73 141.706 118.636 141.768Z" fill="#333343"/>
<path d="M130.868 132.256L134.132 135.637L134.375 135.4L131.108 132.019C131.026 132.098 130.949 132.175 130.868 132.256Z" fill="#333343"/>
<path d="M122.932 138.881L125.694 142.684L125.968 142.484L123.205 138.681C123.11 138.749 123.023 138.818 122.932 138.881Z" fill="#333343"/>
<path d="M128.969 134.014L132.115 137.507L132.364 137.281L129.221 133.788C129.14 133.867 129.053 133.94 128.969 134.014Z" fill="#333343"/>
<path d="M127.014 135.705L130.036 139.307L130.295 139.091L127.273 135.489C127.185 135.561 127.098 135.635 127.014 135.705Z" fill="#333343"/>
<path d="M125.001 137.332L127.895 141.037L128.161 140.829L125.273 137.127C125.178 137.197 125.087 137.262 125.001 137.332Z" fill="#333343"/>
<path d="M104.695 148.535L106.298 152.944L106.615 152.83L105.012 148.424C104.907 148.461 104.8 148.498 104.695 148.535Z" fill="#333343"/>
<path d="M92.2061 151.836L93.0242 156.471L93.3535 156.413L92.5389 151.781C92.425 151.802 92.3129 151.816 92.2061 151.836Z" fill="#333343"/>
<path d="M89.6445 152.23L90.3015 156.895L90.6343 156.848L89.9774 152.183C89.867 152.2 89.7567 152.214 89.6445 152.23Z" fill="#333343"/>
<path d="M84.5029 152.748L84.8323 157.457L85.1686 157.435L84.8393 152.729C84.7237 152.736 84.6133 152.743 84.5029 152.748Z" fill="#333343"/>
<path d="M107.114 147.612L108.873 151.963L109.187 151.836L107.428 147.484C107.319 147.528 107.218 147.571 107.114 147.612Z" fill="#333343"/>
<path d="M87.0781 152.54L87.5704 157.224L87.905 157.191L87.4127 152.501C87.3006 152.513 87.1902 152.529 87.0781 152.54Z" fill="#333343"/>
<path d="M94.7441 151.355L95.7217 155.953L96.051 155.883L95.0735 151.283C94.9631 151.305 94.8563 151.332 94.7441 151.355Z" fill="#333343"/>
<path d="M132.7 130.426L136.081 133.693L136.318 133.452L132.937 130.188C132.858 130.269 132.777 130.349 132.7 130.426Z" fill="#333343"/>
<path d="M97.2686 150.779L98.4073 155.339L98.7349 155.259L97.5997 150.699C97.4875 150.725 97.3754 150.751 97.2686 150.779Z" fill="#333343"/>
<path d="M102.246 149.368L103.698 153.835L104.019 153.73L102.567 149.263C102.46 149.299 102.351 149.335 102.246 149.368Z" fill="#333343"/>
<path d="M99.7705 150.122L101.063 154.631L101.387 154.537L100.095 150.024C99.986 150.057 99.8791 150.09 99.7705 150.122Z" fill="#333343"/>
<path d="M153.209 86.7345L157.867 87.2233L157.904 86.8887L153.249 86.3999C153.237 86.5138 153.223 86.6241 153.209 86.7345Z" fill="#333343"/>
<path d="M151.401 96.9213L155.935 98.0531L156.016 97.7255L151.478 96.5938C151.456 96.7024 151.428 96.8092 151.401 96.9213Z" fill="#333343"/>
<path d="M151.988 94.3997L156.562 95.3737L156.632 95.0444L152.058 94.0703C152.034 94.1807 152.011 94.291 151.988 94.3997Z" fill="#333343"/>
<path d="M152.489 91.8621L157.093 92.6732L157.151 92.3438L152.544 91.5327C152.523 91.6396 152.51 91.7517 152.489 91.8621Z" fill="#333343"/>
<path d="M149.967 101.894L154.413 103.339L154.516 103.019L150.07 101.573C150.033 101.678 150 101.785 149.967 101.894Z" fill="#333343"/>
<path d="M150.727 99.42L155.217 100.708L155.311 100.384L150.825 99.0977C150.795 99.2045 150.762 99.3131 150.727 99.42Z" fill="#333343"/>
<path d="M81.917 152.877L82.0817 157.596L82.418 157.584L82.2534 152.861C82.1412 152.871 82.0291 152.873 81.917 152.877Z" fill="#333343"/>
<path d="M153.577 81.5756L158.267 81.7403L158.279 81.4039L153.591 81.2393C153.588 81.3496 153.581 81.4635 153.577 81.5756Z" fill="#333343"/>
<path d="M5.47604 81.2358L0.719727 81.4005L0.733741 81.7369L5.49005 81.5722C5.48655 81.4618 5.47954 81.3497 5.47604 81.2358Z" fill="#333343"/>
<path d="M153.438 84.1594L158.114 84.4852L158.137 84.1489L153.458 83.8213C153.452 83.9369 153.449 84.0473 153.438 84.1594Z" fill="#333343"/>
<path d="M149.12 104.339L153.509 105.935L153.622 105.618L149.234 104.021C149.194 104.127 149.16 104.234 149.12 104.339Z" fill="#333343"/>
<path d="M152.891 89.3065L157.53 89.9599L157.577 89.6271L152.938 88.9736C152.924 89.084 152.906 89.1944 152.891 89.3065Z" fill="#333343"/>
<path d="M134.472 128.545L137.961 131.688L138.187 131.439L134.694 128.296C134.621 128.375 134.547 128.459 134.472 128.545Z" fill="#333343"/>
<path d="M148.182 106.751L152.516 108.503L152.644 108.189L148.308 106.438C148.269 106.544 148.225 106.646 148.182 106.751Z" fill="#333343"/>
<path d="M140.864 120.413L144.752 123.034L144.941 122.755L141.057 120.134C140.99 120.227 140.929 120.322 140.864 120.413Z" fill="#333343"/>
<path d="M136.172 126.593L139.772 129.615L139.987 129.356L136.391 126.337C136.317 126.421 136.242 126.506 136.172 126.593Z" fill="#333343"/>
<path d="M137.811 124.589L141.505 127.476L141.714 127.21L138.016 124.319C137.947 124.41 137.881 124.502 137.811 124.589Z" fill="#333343"/>
<path d="M142.279 118.247L146.254 120.729L146.433 120.444L142.458 117.961C142.397 118.058 142.341 118.152 142.279 118.247Z" fill="#333343"/>
<path d="M139.369 122.529L143.165 125.288L143.363 125.015L139.567 122.256C139.504 122.347 139.436 122.438 139.369 122.529Z" fill="#333343"/>
<path d="M147.167 109.133L151.438 111.032L151.576 110.725L147.305 108.823C147.258 108.928 147.214 109.031 147.167 109.133Z" fill="#333343"/>
<path d="M146.062 111.473L150.266 113.524L150.413 113.221L146.21 111.17C146.163 111.272 146.112 111.373 146.062 111.473Z" fill="#333343"/>
<path d="M143.619 116.035L147.675 118.375L147.843 118.083L143.791 115.742C143.735 115.842 143.677 115.937 143.619 116.035Z" fill="#333343"/>
<path d="M144.883 113.773L149.015 115.97L149.173 115.674L145.04 113.477C144.988 113.575 144.934 113.675 144.883 113.773Z" fill="#333343"/>
<path d="M153.632 78.6519C153.632 78.7097 153.635 78.764 153.635 78.82C153.635 78.8778 153.632 78.9322 153.632 78.9882H158.32V78.6519H153.632Z" fill="#333343"/>
<path d="M27.923 131.987L24.626 135.403L24.8677 135.639L28.1647 132.223C28.0842 132.144 28.0036 132.064 27.923 131.987Z" fill="#333343"/>
<path d="M16.5916 117.93L12.5693 120.444L12.748 120.731L16.7703 118.217C16.709 118.123 16.6494 118.028 16.5916 117.93Z" fill="#333343"/>
<path d="M11.7517 108.798L7.42285 110.725L7.56125 111.031L11.8866 109.104C11.8428 109.005 11.799 108.899 11.7517 108.798Z" fill="#333343"/>
<path d="M14.0112 113.451L9.82422 115.677L9.98189 115.973L14.1653 113.747C14.1163 113.649 14.0655 113.549 14.0112 113.451Z" fill="#333343"/>
<path d="M17.9937 120.103L14.0625 122.753L14.2517 123.032L18.1829 120.381C18.1181 120.292 18.0532 120.197 17.9937 120.103Z" fill="#333343"/>
<path d="M12.8391 111.147L8.58203 113.222L8.73094 113.525L12.988 111.447C12.9407 111.345 12.8864 111.247 12.8391 111.147Z" fill="#333343"/>
<path d="M26.0978 130.155L22.6816 133.452L22.9181 133.696L26.3343 130.399C26.2554 130.316 26.1784 130.236 26.0978 130.155Z" fill="#333343"/>
<path d="M24.3425 128.257L20.8125 131.433L21.0385 131.682L24.565 128.506C24.4914 128.426 24.4178 128.341 24.3425 128.257Z" fill="#333343"/>
<path d="M19.4758 122.221L15.6357 125.01L15.8337 125.283L19.6738 122.494C19.6072 122.405 19.5406 122.314 19.4758 122.221Z" fill="#333343"/>
<path d="M21.0236 124.293L17.2852 127.217L17.4936 127.483L21.2321 124.563C21.1585 124.472 21.0955 124.381 21.0236 124.293Z" fill="#333343"/>
<path d="M22.6484 126.304L19.0098 129.356L19.2252 129.615L22.8639 126.563C22.7938 126.476 22.722 126.388 22.6484 126.304Z" fill="#333343"/>
<path d="M15.2591 115.718L11.1562 118.085L11.3244 118.377L15.4308 116.005C15.373 115.909 15.3117 115.814 15.2591 115.718Z" fill="#333343"/>
<path d="M6.52085 91.5151L1.84863 92.3403L1.90644 92.6696L6.57516 91.848C6.55764 91.7376 6.54188 91.6255 6.52085 91.5151Z" fill="#333343"/>
<path d="M6.12583 88.9614L1.42383 89.6219L1.47113 89.9547L6.17313 89.2943C6.15561 89.1857 6.14335 89.0735 6.12583 88.9614Z" fill="#333343"/>
<path d="M5.8158 86.395L1.09277 86.889L1.12606 87.2237L5.85259 86.7279C5.84383 86.6175 5.82631 86.5071 5.8158 86.395Z" fill="#333343"/>
<path d="M7.00612 94.0576L2.36719 95.0439L2.43726 95.3733L7.0762 94.387C7.05342 94.2784 7.0289 94.1662 7.00612 94.0576Z" fill="#333343"/>
<path d="M10.7474 106.417L6.35547 108.192L6.48335 108.505L10.8753 106.731C10.8315 106.622 10.7877 106.522 10.7474 106.417Z" fill="#333343"/>
<path d="M5.6042 83.8179L0.858398 84.1472L0.881173 84.4836L5.62347 84.1542C5.61821 84.0439 5.6112 83.93 5.6042 83.8179Z" fill="#333343"/>
<path d="M8.98899 101.554L4.48145 103.021L4.58656 103.341L9.0941 101.877C9.06082 101.766 9.02578 101.661 8.98899 101.554Z" fill="#333343"/>
<path d="M9.82473 104.001L5.375 105.621L5.48887 105.939L9.9351 104.322C9.90006 104.215 9.86152 104.106 9.82473 104.001Z" fill="#333343"/>
<path d="M7.58184 96.5786L2.98145 97.7278L3.06203 98.0554L7.66067 96.9097C7.63264 96.7976 7.60812 96.6855 7.58184 96.5786Z" fill="#333343"/>
<path d="M8.23884 99.0801L3.6875 100.383L3.7821 100.708L8.33695 99.4007C8.30191 99.2938 8.26862 99.1887 8.23884 99.0801Z" fill="#333343"/>
<path d="M53.9937 148.4L52.3838 152.829L52.7009 152.943L54.3143 148.514C54.2057 148.474 54.0989 148.441 53.9937 148.4Z" fill="#333343"/>
<path d="M63.9293 151.267L62.9482 155.881L63.2776 155.951L64.2586 151.34C64.1465 151.317 64.0397 151.291 63.9293 151.267Z" fill="#333343"/>
<path d="M66.4636 151.772L65.6455 156.415L65.9749 156.473L66.793 151.829C66.6861 151.806 66.5757 151.788 66.4636 151.772Z" fill="#333343"/>
<path d="M79.5333 152.92C79.465 152.92 79.3984 152.917 79.3301 152.917V157.64H79.6664V152.917C79.6244 152.918 79.5771 152.92 79.5333 152.92Z" fill="#333343"/>
<path d="M58.9112 150.01L57.6113 154.541L57.9337 154.635L59.23 150.108C59.1232 150.075 59.0198 150.042 58.9112 150.01Z" fill="#333343"/>
<path d="M56.4398 149.246L54.9805 153.733L55.3011 153.836L56.7604 149.349C56.6517 149.313 56.5484 149.279 56.4398 149.246Z" fill="#333343"/>
<path d="M29.8064 133.759L26.6338 137.282L26.8826 137.508L30.0587 133.981C29.9746 133.908 29.8905 133.832 29.8064 133.759Z" fill="#333343"/>
<path d="M76.7438 152.865L76.5791 157.588L76.9155 157.602L77.0801 152.879C76.9698 152.872 76.8594 152.868 76.7438 152.865Z" fill="#333343"/>
<path d="M74.1633 152.726L73.834 157.439L74.1703 157.463L74.4997 152.751C74.3858 152.738 74.2755 152.733 74.1633 152.726Z" fill="#333343"/>
<path d="M69.0212 152.172L68.3643 156.848L68.6971 156.895L69.3541 152.22C69.2419 152.207 69.1316 152.19 69.0212 152.172Z" fill="#333343"/>
<path d="M71.5868 152.496L71.0928 157.191L71.4256 157.224L71.9179 152.533C71.8093 152.522 71.6989 152.507 71.5868 152.496Z" fill="#333343"/>
<path d="M61.4078 150.685L60.2656 155.259L60.5932 155.34L61.7354 150.762C61.6268 150.734 61.5165 150.711 61.4078 150.685Z" fill="#333343"/>
<path d="M37.9312 140.144L35.2842 144.068L35.5645 144.257L38.2115 140.333C38.1152 140.273 38.0258 140.208 37.9312 140.144Z" fill="#333343"/>
<path d="M35.8226 138.653L33.0371 142.486L33.3104 142.684L36.0959 138.851C36.0013 138.788 35.9102 138.72 35.8226 138.653Z" fill="#333343"/>
<path d="M33.7567 137.092L30.8398 140.823L31.1061 141.032L34.023 137.297C33.9354 137.23 33.8443 137.164 33.7567 137.092Z" fill="#333343"/>
<path d="M40.0966 141.56L37.5879 145.575L37.8734 145.754L40.3821 141.738C40.2875 141.68 40.1912 141.621 40.0966 141.56Z" fill="#333343"/>
<path d="M31.7558 135.456L28.7041 139.091L28.9634 139.306L32.0116 135.671C31.9275 135.601 31.8434 135.529 31.7558 135.456Z" fill="#333343"/>
<path d="M49.2042 146.447L47.2842 150.758L47.5908 150.897L49.5108 146.585C49.4092 146.538 49.3093 146.494 49.2042 146.447Z" fill="#333343"/>
<path d="M46.8676 145.346L44.7969 149.59L45.0999 149.739L47.1689 145.495C47.0655 145.444 46.9674 145.393 46.8676 145.346Z" fill="#333343"/>
<path d="M51.585 147.461L49.8174 151.838L50.131 151.965L51.8986 147.589C51.7917 147.549 51.6866 147.505 51.585 147.461Z" fill="#333343"/>
<path d="M42.3094 142.899L39.9443 146.995L40.2369 147.163L42.5984 143.071C42.5021 143.019 42.404 142.957 42.3094 142.899Z" fill="#333343"/>
<path d="M44.5653 144.163L42.3457 148.336L42.6418 148.493L44.8614 144.32C44.765 144.268 44.6634 144.217 44.5653 144.163Z" fill="#333343"/>
<defs>
<linearGradient id="paint0_linear_572_19495" x1="81.4789" y1="137.569" x2="81.4789" y2="179.178" gradientUnits="userSpaceOnUse">
<stop stop-color="#FFE040"/>
<stop offset="1" stop-color="#ED9B2F"/>
</linearGradient>
</defs>
</svg>
